<mxfile host="Electron" modified="2023-10-20T18:13:47.485Z" agent="Mozilla/5.0 (Windows NT 10.0; Win64; x64) AppleWebKit/537.36 (KHTML, like Gecko) draw.io/22.0.2 Chrome/114.0.5735.289 Electron/25.8.4 Safari/537.36" etag="EXkqSfdhoLCbThwh0-wM" version="22.0.2" type="device">
  <diagram name="Page-1" id="6PJMr7kjuhAtTIpEn589">
    <mxGraphModel dx="2603" dy="2378" grid="1" gridSize="10" guides="1" tooltips="1" connect="1" arrows="1" fold="1" page="1" pageScale="1" pageWidth="1100" pageHeight="850" math="0" shadow="0">
      <root>
        <mxCell id="0" />
        <mxCell id="1" parent="0" />
        <mxCell id="yhVZFN4sOOWPyYo3yo3H-2" value="" style="pointerEvents=1;verticalLabelPosition=bottom;shadow=0;dashed=0;align=center;html=1;verticalAlign=top;shape=mxgraph.electrical.resistors.resistor_2;strokeWidth=4;direction=south;rotation=45;" vertex="1" parent="1">
          <mxGeometry x="350" y="10" width="90" height="450" as="geometry" />
        </mxCell>
        <mxCell id="yhVZFN4sOOWPyYo3yo3H-3" value="" style="pointerEvents=1;verticalLabelPosition=bottom;shadow=0;dashed=0;align=center;html=1;verticalAlign=top;shape=mxgraph.electrical.resistors.resistor_2;strokeWidth=4;direction=south;rotation=-45;" vertex="1" parent="1">
          <mxGeometry x="350" y="330" width="90" height="450" as="geometry" />
        </mxCell>
        <mxCell id="yhVZFN4sOOWPyYo3yo3H-4" value="" style="pointerEvents=1;verticalLabelPosition=bottom;shadow=0;dashed=0;align=center;html=1;verticalAlign=top;shape=mxgraph.electrical.resistors.resistor_2;strokeWidth=4;direction=south;rotation=135;" vertex="1" parent="1">
          <mxGeometry x="670" y="10" width="90" height="450" as="geometry" />
        </mxCell>
        <mxCell id="yhVZFN4sOOWPyYo3yo3H-5" value="" style="pointerEvents=1;verticalLabelPosition=bottom;shadow=0;dashed=0;align=center;html=1;verticalAlign=top;shape=mxgraph.electrical.resistors.resistor_2;strokeWidth=4;direction=south;rotation=45;" vertex="1" parent="1">
          <mxGeometry x="670" y="330" width="90" height="450" as="geometry" />
        </mxCell>
        <mxCell id="yhVZFN4sOOWPyYo3yo3H-6" value="" style="ellipse;whiteSpace=wrap;html=1;aspect=fixed;fillColor=#000000;" vertex="1" parent="1">
          <mxGeometry x="550" y="70" width="10" height="10" as="geometry" />
        </mxCell>
        <mxCell id="yhVZFN4sOOWPyYo3yo3H-8" value="" style="ellipse;whiteSpace=wrap;html=1;aspect=fixed;fillColor=#000000;" vertex="1" parent="1">
          <mxGeometry x="230" y="390" width="10" height="10" as="geometry" />
        </mxCell>
        <mxCell id="yhVZFN4sOOWPyYo3yo3H-9" value="" style="ellipse;whiteSpace=wrap;html=1;aspect=fixed;fillColor=#000000;" vertex="1" parent="1">
          <mxGeometry x="550" y="710" width="10" height="10" as="geometry" />
        </mxCell>
        <mxCell id="yhVZFN4sOOWPyYo3yo3H-10" value="" style="ellipse;whiteSpace=wrap;html=1;aspect=fixed;fillColor=#000000;" vertex="1" parent="1">
          <mxGeometry x="870" y="390" width="10" height="10" as="geometry" />
        </mxCell>
        <mxCell id="yhVZFN4sOOWPyYo3yo3H-11" value="" style="verticalLabelPosition=bottom;shadow=0;dashed=0;align=center;html=1;verticalAlign=top;shape=mxgraph.electrical.abstract.ota_1;strokeWidth=4;" vertex="1" parent="1">
          <mxGeometry x="1070" y="260" width="300" height="270" as="geometry" />
        </mxCell>
        <mxCell id="yhVZFN4sOOWPyYo3yo3H-12" value="" style="endArrow=none;html=1;rounded=0;exitX=0.5;exitY=1;exitDx=0;exitDy=0;entryX=0;entryY=0.835;entryDx=0;entryDy=0;entryPerimeter=0;strokeWidth=4;" edge="1" parent="1" source="yhVZFN4sOOWPyYo3yo3H-8" target="yhVZFN4sOOWPyYo3yo3H-11">
          <mxGeometry width="50" height="50" relative="1" as="geometry">
            <mxPoint x="580" y="460" as="sourcePoint" />
            <mxPoint x="630" y="410" as="targetPoint" />
            <Array as="points">
              <mxPoint x="235" y="790" />
              <mxPoint x="940" y="790" />
              <mxPoint x="940" y="485" />
            </Array>
          </mxGeometry>
        </mxCell>
        <mxCell id="yhVZFN4sOOWPyYo3yo3H-13" style="edgeStyle=orthogonalEdgeStyle;rounded=0;orthogonalLoop=1;jettySize=auto;html=1;exitX=1;exitY=0.5;exitDx=0;exitDy=0;entryX=0;entryY=0.165;entryDx=0;entryDy=0;entryPerimeter=0;endArrow=none;endFill=0;strokeWidth=4;" edge="1" parent="1" source="yhVZFN4sOOWPyYo3yo3H-10" target="yhVZFN4sOOWPyYo3yo3H-11">
          <mxGeometry relative="1" as="geometry">
            <Array as="points">
              <mxPoint x="940" y="395" />
              <mxPoint x="940" y="305" />
            </Array>
          </mxGeometry>
        </mxCell>
        <mxCell id="yhVZFN4sOOWPyYo3yo3H-14" value="" style="verticalLabelPosition=bottom;shadow=0;dashed=0;align=center;fillColor=strokeColor;html=1;verticalAlign=top;strokeWidth=4;shape=mxgraph.electrical.miscellaneous.monocell_battery;rotation=-90;" vertex="1" parent="1">
          <mxGeometry x="-70" y="350" width="240" height="90" as="geometry" />
        </mxCell>
        <mxCell id="yhVZFN4sOOWPyYo3yo3H-15" value="" style="endArrow=none;html=1;rounded=0;exitX=0;exitY=0.5;exitDx=0;exitDy=0;entryX=0.5;entryY=1;entryDx=0;entryDy=0;strokeWidth=4;exitPerimeter=0;edgeStyle=orthogonalEdgeStyle;jumpStyle=arc;jumpSize=25;" edge="1" parent="1" source="yhVZFN4sOOWPyYo3yo3H-14" target="yhVZFN4sOOWPyYo3yo3H-9">
          <mxGeometry width="50" height="50" relative="1" as="geometry">
            <mxPoint x="245" y="410" as="sourcePoint" />
            <mxPoint x="1080" y="495" as="targetPoint" />
            <Array as="points">
              <mxPoint x="50" y="840" />
              <mxPoint x="555" y="840" />
            </Array>
          </mxGeometry>
        </mxCell>
        <mxCell id="yhVZFN4sOOWPyYo3yo3H-17" value="" style="endArrow=none;html=1;rounded=0;exitX=1;exitY=0.5;exitDx=0;exitDy=0;entryX=0.5;entryY=0;entryDx=0;entryDy=0;strokeWidth=4;exitPerimeter=0;edgeStyle=orthogonalEdgeStyle;jumpStyle=arc;jumpSize=25;" edge="1" parent="1" source="yhVZFN4sOOWPyYo3yo3H-14" target="yhVZFN4sOOWPyYo3yo3H-6">
          <mxGeometry width="50" height="50" relative="1" as="geometry">
            <mxPoint x="60" y="525" as="sourcePoint" />
            <mxPoint x="565" y="730" as="targetPoint" />
            <Array as="points">
              <mxPoint x="50" y="30" />
              <mxPoint x="555" y="30" />
            </Array>
          </mxGeometry>
        </mxCell>
        <mxCell id="yhVZFN4sOOWPyYo3yo3H-18" value="V&lt;sub style=&quot;font-size: 100px;&quot;&gt;dd&lt;/sub&gt;" style="verticalLabelPosition=top;verticalAlign=bottom;shape=mxgraph.electrical.signal_sources.vdd;shadow=0;dashed=0;align=center;strokeWidth=4;fontSize=100;html=1;flipV=1;fontFamily=cmu sans serif;" vertex="1" parent="1">
          <mxGeometry x="1120" y="120" width="140" height="80" as="geometry" />
        </mxCell>
        <mxCell id="yhVZFN4sOOWPyYo3yo3H-19" value="" style="endArrow=none;html=1;rounded=0;exitX=0.4;exitY=0.05;exitDx=0;exitDy=0;entryX=0.5;entryY=0;entryDx=0;entryDy=0;strokeWidth=4;exitPerimeter=0;edgeStyle=orthogonalEdgeStyle;jumpStyle=arc;jumpSize=25;entryPerimeter=0;" edge="1" parent="1" source="yhVZFN4sOOWPyYo3yo3H-11" target="yhVZFN4sOOWPyYo3yo3H-18">
          <mxGeometry width="50" height="50" relative="1" as="geometry">
            <mxPoint x="60" y="285" as="sourcePoint" />
            <mxPoint x="565" y="80" as="targetPoint" />
            <Array as="points">
              <mxPoint x="1190" y="200" />
            </Array>
          </mxGeometry>
        </mxCell>
        <mxCell id="yhVZFN4sOOWPyYo3yo3H-20" value="" style="pointerEvents=1;verticalLabelPosition=bottom;shadow=0;dashed=0;align=center;html=1;verticalAlign=top;shape=mxgraph.electrical.signal_sources.signal_ground;strokeWidth=4;" vertex="1" parent="1">
          <mxGeometry x="1115" y="590" width="150" height="100" as="geometry" />
        </mxCell>
        <mxCell id="yhVZFN4sOOWPyYo3yo3H-21" value="" style="endArrow=none;html=1;rounded=0;exitX=0.5;exitY=0;exitDx=0;exitDy=0;entryX=0.4;entryY=0.95;entryDx=0;entryDy=0;strokeWidth=4;exitPerimeter=0;edgeStyle=orthogonalEdgeStyle;jumpStyle=arc;jumpSize=25;entryPerimeter=0;" edge="1" parent="1" source="yhVZFN4sOOWPyYo3yo3H-20" target="yhVZFN4sOOWPyYo3yo3H-11">
          <mxGeometry width="50" height="50" relative="1" as="geometry">
            <mxPoint x="1200" y="283" as="sourcePoint" />
            <mxPoint x="1200" y="210" as="targetPoint" />
            <Array as="points" />
          </mxGeometry>
        </mxCell>
        <mxCell id="yhVZFN4sOOWPyYo3yo3H-22" style="edgeStyle=orthogonalEdgeStyle;rounded=0;orthogonalLoop=1;jettySize=auto;html=1;exitX=1;exitY=0.5;exitDx=0;exitDy=0;endArrow=none;endFill=0;strokeWidth=4;exitPerimeter=0;" edge="1" parent="1" source="yhVZFN4sOOWPyYo3yo3H-11">
          <mxGeometry relative="1" as="geometry">
            <mxPoint x="890" y="405" as="sourcePoint" />
            <mxPoint x="1480" y="395" as="targetPoint" />
            <Array as="points">
              <mxPoint x="1420" y="395" />
              <mxPoint x="1420" y="395" />
            </Array>
          </mxGeometry>
        </mxCell>
        <mxCell id="yhVZFN4sOOWPyYo3yo3H-23" value="&lt;font face=&quot;cmu sans serif&quot;&gt;&lt;span style=&quot;font-size: 100px;&quot;&gt;R3&lt;/span&gt;&lt;/font&gt;" style="text;html=1;strokeColor=none;fillColor=none;align=center;verticalAlign=middle;whiteSpace=wrap;rounded=0;" vertex="1" parent="1">
          <mxGeometry x="710" y="90" width="130" height="120" as="geometry" />
        </mxCell>
        <mxCell id="yhVZFN4sOOWPyYo3yo3H-25" value="&lt;font face=&quot;cmu sans serif&quot;&gt;&lt;span style=&quot;font-size: 100px;&quot;&gt;RX&lt;/span&gt;&lt;/font&gt;" style="text;html=1;strokeColor=none;fillColor=none;align=center;verticalAlign=middle;whiteSpace=wrap;rounded=0;" vertex="1" parent="1">
          <mxGeometry x="740" y="610" width="130" height="120" as="geometry" />
        </mxCell>
        <mxCell id="yhVZFN4sOOWPyYo3yo3H-26" value="&lt;font face=&quot;cmu sans serif&quot;&gt;&lt;span style=&quot;font-size: 100px;&quot;&gt;R2&lt;/span&gt;&lt;/font&gt;" style="text;html=1;strokeColor=none;fillColor=none;align=center;verticalAlign=middle;whiteSpace=wrap;rounded=0;" vertex="1" parent="1">
          <mxGeometry x="260" y="610" width="130" height="120" as="geometry" />
        </mxCell>
        <mxCell id="yhVZFN4sOOWPyYo3yo3H-27" value="&lt;font face=&quot;cmu sans serif&quot;&gt;&lt;span style=&quot;font-size: 100px;&quot;&gt;R1&lt;/span&gt;&lt;/font&gt;" style="text;html=1;strokeColor=none;fillColor=none;align=center;verticalAlign=middle;whiteSpace=wrap;rounded=0;" vertex="1" parent="1">
          <mxGeometry x="260" y="90" width="130" height="120" as="geometry" />
        </mxCell>
        <mxCell id="yhVZFN4sOOWPyYo3yo3H-28" value="&lt;font face=&quot;cmu sans serif&quot;&gt;&lt;span style=&quot;font-size: 100px;&quot;&gt;V&lt;sub&gt;meas&lt;/sub&gt;&lt;/span&gt;&lt;/font&gt;" style="text;html=1;strokeColor=none;fillColor=none;align=center;verticalAlign=middle;whiteSpace=wrap;rounded=0;" vertex="1" parent="1">
          <mxGeometry x="1350" y="270" width="130" height="120" as="geometry" />
        </mxCell>
        <mxCell id="yhVZFN4sOOWPyYo3yo3H-29" value="" style="pointerEvents=1;verticalLabelPosition=bottom;shadow=0;dashed=0;align=center;html=1;verticalAlign=top;shape=mxgraph.electrical.resistors.resistor_2;strokeWidth=4;direction=south;rotation=45;" vertex="1" parent="1">
          <mxGeometry x="360" y="-850" width="90" height="450" as="geometry" />
        </mxCell>
        <mxCell id="yhVZFN4sOOWPyYo3yo3H-30" value="" style="pointerEvents=1;verticalLabelPosition=bottom;shadow=0;dashed=0;align=center;html=1;verticalAlign=top;shape=mxgraph.electrical.resistors.resistor_2;strokeWidth=4;direction=south;rotation=-45;" vertex="1" parent="1">
          <mxGeometry x="360" y="-530" width="90" height="450" as="geometry" />
        </mxCell>
        <mxCell id="yhVZFN4sOOWPyYo3yo3H-31" value="" style="pointerEvents=1;verticalLabelPosition=bottom;shadow=0;dashed=0;align=center;html=1;verticalAlign=top;shape=mxgraph.electrical.resistors.resistor_2;strokeWidth=4;direction=south;rotation=135;" vertex="1" parent="1">
          <mxGeometry x="680" y="-850" width="90" height="450" as="geometry" />
        </mxCell>
        <mxCell id="yhVZFN4sOOWPyYo3yo3H-32" value="" style="pointerEvents=1;verticalLabelPosition=bottom;shadow=0;dashed=0;align=center;html=1;verticalAlign=top;shape=mxgraph.electrical.resistors.resistor_2;strokeWidth=4;direction=south;rotation=45;" vertex="1" parent="1">
          <mxGeometry x="680" y="-530" width="90" height="450" as="geometry" />
        </mxCell>
        <mxCell id="yhVZFN4sOOWPyYo3yo3H-33" value="" style="ellipse;whiteSpace=wrap;html=1;aspect=fixed;fillColor=#000000;" vertex="1" parent="1">
          <mxGeometry x="560" y="-790" width="10" height="10" as="geometry" />
        </mxCell>
        <mxCell id="yhVZFN4sOOWPyYo3yo3H-34" value="" style="ellipse;whiteSpace=wrap;html=1;aspect=fixed;fillColor=#000000;" vertex="1" parent="1">
          <mxGeometry x="240" y="-470" width="10" height="10" as="geometry" />
        </mxCell>
        <mxCell id="yhVZFN4sOOWPyYo3yo3H-35" value="" style="ellipse;whiteSpace=wrap;html=1;aspect=fixed;fillColor=#000000;" vertex="1" parent="1">
          <mxGeometry x="560" y="-150" width="10" height="10" as="geometry" />
        </mxCell>
        <mxCell id="yhVZFN4sOOWPyYo3yo3H-36" value="" style="ellipse;whiteSpace=wrap;html=1;aspect=fixed;fillColor=#000000;" vertex="1" parent="1">
          <mxGeometry x="880" y="-470" width="10" height="10" as="geometry" />
        </mxCell>
        <mxCell id="yhVZFN4sOOWPyYo3yo3H-39" style="edgeStyle=orthogonalEdgeStyle;rounded=0;orthogonalLoop=1;jettySize=auto;html=1;exitX=0;exitY=0.5;exitDx=0;exitDy=0;endArrow=none;endFill=0;strokeWidth=4;entryX=1;entryY=0.5;entryDx=0;entryDy=0;" edge="1" parent="1" source="yhVZFN4sOOWPyYo3yo3H-36" target="yhVZFN4sOOWPyYo3yo3H-52">
          <mxGeometry relative="1" as="geometry">
            <Array as="points">
              <mxPoint x="700" y="-465" />
              <mxPoint x="700" y="-465" />
            </Array>
            <mxPoint x="720" y="-465" as="targetPoint" />
          </mxGeometry>
        </mxCell>
        <mxCell id="yhVZFN4sOOWPyYo3yo3H-40" value="" style="verticalLabelPosition=bottom;shadow=0;dashed=0;align=center;fillColor=strokeColor;html=1;verticalAlign=top;strokeWidth=4;shape=mxgraph.electrical.miscellaneous.monocell_battery;rotation=-90;" vertex="1" parent="1">
          <mxGeometry x="-60" y="-510" width="240" height="90" as="geometry" />
        </mxCell>
        <mxCell id="yhVZFN4sOOWPyYo3yo3H-41" value="" style="endArrow=none;html=1;rounded=0;exitX=0;exitY=0.5;exitDx=0;exitDy=0;entryX=0.5;entryY=1;entryDx=0;entryDy=0;strokeWidth=4;exitPerimeter=0;edgeStyle=orthogonalEdgeStyle;jumpStyle=arc;jumpSize=25;" edge="1" parent="1" source="yhVZFN4sOOWPyYo3yo3H-40" target="yhVZFN4sOOWPyYo3yo3H-35">
          <mxGeometry width="50" height="50" relative="1" as="geometry">
            <mxPoint x="255" y="-450" as="sourcePoint" />
            <mxPoint x="1090" y="-365" as="targetPoint" />
            <Array as="points">
              <mxPoint x="60" y="-120" />
              <mxPoint x="565" y="-120" />
            </Array>
          </mxGeometry>
        </mxCell>
        <mxCell id="yhVZFN4sOOWPyYo3yo3H-42" value="" style="endArrow=none;html=1;rounded=0;exitX=1;exitY=0.5;exitDx=0;exitDy=0;entryX=0.5;entryY=0;entryDx=0;entryDy=0;strokeWidth=4;exitPerimeter=0;edgeStyle=orthogonalEdgeStyle;jumpStyle=arc;jumpSize=25;" edge="1" parent="1" source="yhVZFN4sOOWPyYo3yo3H-40" target="yhVZFN4sOOWPyYo3yo3H-33">
          <mxGeometry width="50" height="50" relative="1" as="geometry">
            <mxPoint x="70" y="-335" as="sourcePoint" />
            <mxPoint x="575" y="-130" as="targetPoint" />
            <Array as="points">
              <mxPoint x="60" y="-800" />
              <mxPoint x="565" y="-800" />
            </Array>
          </mxGeometry>
        </mxCell>
        <mxCell id="yhVZFN4sOOWPyYo3yo3H-48" value="&lt;font face=&quot;cmu sans serif&quot;&gt;&lt;span style=&quot;font-size: 100px;&quot;&gt;R3&lt;/span&gt;&lt;/font&gt;" style="text;html=1;strokeColor=none;fillColor=none;align=center;verticalAlign=middle;whiteSpace=wrap;rounded=0;" vertex="1" parent="1">
          <mxGeometry x="720" y="-770" width="130" height="120" as="geometry" />
        </mxCell>
        <mxCell id="yhVZFN4sOOWPyYo3yo3H-49" value="&lt;font face=&quot;cmu sans serif&quot;&gt;&lt;span style=&quot;font-size: 100px;&quot;&gt;RX&lt;/span&gt;&lt;/font&gt;" style="text;html=1;strokeColor=none;fillColor=none;align=center;verticalAlign=middle;whiteSpace=wrap;rounded=0;" vertex="1" parent="1">
          <mxGeometry x="750" y="-250" width="130" height="120" as="geometry" />
        </mxCell>
        <mxCell id="yhVZFN4sOOWPyYo3yo3H-50" value="&lt;font face=&quot;cmu sans serif&quot;&gt;&lt;span style=&quot;font-size: 100px;&quot;&gt;R2&lt;/span&gt;&lt;/font&gt;" style="text;html=1;strokeColor=none;fillColor=none;align=center;verticalAlign=middle;whiteSpace=wrap;rounded=0;" vertex="1" parent="1">
          <mxGeometry x="270" y="-250" width="130" height="120" as="geometry" />
        </mxCell>
        <mxCell id="yhVZFN4sOOWPyYo3yo3H-51" value="&lt;font face=&quot;cmu sans serif&quot;&gt;&lt;span style=&quot;font-size: 100px;&quot;&gt;R1&lt;/span&gt;&lt;/font&gt;" style="text;html=1;strokeColor=none;fillColor=none;align=center;verticalAlign=middle;whiteSpace=wrap;rounded=0;" vertex="1" parent="1">
          <mxGeometry x="270" y="-770" width="130" height="120" as="geometry" />
        </mxCell>
        <mxCell id="yhVZFN4sOOWPyYo3yo3H-52" value="&lt;font face=&quot;cmu sans serif&quot;&gt;&lt;span style=&quot;font-size: 100px;&quot;&gt;V&lt;sub&gt;meas&lt;/sub&gt;&lt;/span&gt;&lt;/font&gt;" style="text;html=1;strokeColor=none;fillColor=none;align=center;verticalAlign=middle;whiteSpace=wrap;rounded=0;" vertex="1" parent="1">
          <mxGeometry x="440" y="-525" width="250" height="120" as="geometry" />
        </mxCell>
        <mxCell id="yhVZFN4sOOWPyYo3yo3H-53" style="edgeStyle=orthogonalEdgeStyle;rounded=0;orthogonalLoop=1;jettySize=auto;html=1;endArrow=none;endFill=0;strokeWidth=4;entryX=1;entryY=0.5;entryDx=0;entryDy=0;exitX=0;exitY=0.5;exitDx=0;exitDy=0;" edge="1" parent="1" source="yhVZFN4sOOWPyYo3yo3H-52" target="yhVZFN4sOOWPyYo3yo3H-34">
          <mxGeometry relative="1" as="geometry">
            <Array as="points" />
            <mxPoint x="440" y="-465" as="sourcePoint" />
            <mxPoint x="250" y="-465.42" as="targetPoint" />
          </mxGeometry>
        </mxCell>
      </root>
    </mxGraphModel>
  </diagram>
</mxfile>
